Coordinates

Units are S.I. units (second, meters, Newtons, ...)
If the header above contains a line with 'inDegrees', this indicates whether rotational values are in degrees (yes) or radians (no).

inDegrees=no
nColumns=21
nRows=17
DataType=double
version=3
OpenSimVersion=4.6-2026-03-31-d6972f9e6
endheader
time	/jointset/ground_pelvis/pelvis_tilt/value	/jointset/ground_pelvis/pelvis_list/value	/jointset/ground_pelvis/pelvis_rotation/value	/jointset/ground_pelvis/pelvis_tx/value	/jointset/ground_pelvis/pelvis_ty/value	/jointset/ground_pelvis/pelvis_tz/value	/jointset/hip_r/hip_flexion_r/value	/jointset/hip_r/hip_adduction_r/value	/jointset/hip_r/hip_rotation_r/value	/jointset/walker_knee_r/knee_angle_r/value	/jointset/patellofemoral_r/knee_angle_r_beta/value	/jointset/ankle_r/ankle_angle_r/value	/jointset/subtalar_r/subtalar_angle_r/value	/jointset/hip_l/hip_flexion_l/value	/jointset/hip_l/hip_adduction_l/value	/jointset/hip_l/hip_rotation_l/value	/jointset/walker_knee_l/knee_angle_l/value	/jointset/patellofemoral_l/knee_angle_l_beta/value	/jointset/ankle_l/ankle_angle_l/value	/jointset/subtalar_l/subtalar_angle_l/value
147.496	-0.1119119124079543	-0.13145925308607	1.561269301302722	0.8208714334812213	1.097947604950534	-0.8916225610017809	-0.3188007566240117	-0.1106930214786918	-0.04651660041908026	0.3011967350895354	0.3011967351247623	-0.4814878251711553	-0.2048916470080276	0.564482691388743	0.110269154726116	0.03910828657834646	0.5448902792318217	0.5448902803114106	-0.1530315156100124	-0.3204611329655463
147.5	-0.1081411157140647	-0.130412830242139	1.561939011314459	0.821142274049962	1.097893235526832	-0.8921217516298022	-0.3198083571389023	-0.1057081467090113	-0.03637077479544076	0.3195460384249135	0.3195460384938522	-0.4763303828937764	-0.2102542689679037	0.5523451784803518	0.1064193316009963	0.04231343642800529	0.5017862554696283	0.5017862565259932	-0.156739773045402	-0.3107671199514728
147.504	-0.1040253720303409	-0.1287943655639811	1.562552831106817	0.8214149456541526	1.097705072466205	-0.8925797180894925	-0.3204740042878558	-0.1003028397616731	-0.02584322159413881	0.3397188639701901	0.3397188640460704	-0.4704762907825742	-0.2153373856861559	0.5398816989786279	0.1021639451647779	0.04522500930185239	0.4605857064005627	0.4605857074075215	-0.1608134275509032	-0.3002687609512184
147.508	-0.0996374216576187	-0.1266255798410424	1.563104780782719	0.8216891456131254	1.09738670669265	-0.892996601512327	-0.3207758035340079	-0.094568470041881	-0.01514183018997117	0.3616620338898212	0.3616620339453877	-0.4641127342546801	-0.2200029754365717	0.5272297574851764	0.09758609762883041	0.04779026534076761	0.4216135408036022	0.4216135417349602	-0.1652441029856511	-0.2890882554771482
147.512	-0.09505929804783801	-0.1239344433583353	1.563590786655556	0.8219642808673326	1.096941188451113	-0.8933726496660342	-0.3206893477102237	-0.08860928473118893	-0.004477955066099687	0.3853159288900622	0.3853159288988204	-0.457412494762323	-0.2241357145910447	0.5145279171168861	0.09278270430735094	0.04996944860365702	0.3851839268072257	0.3851839276388368	-0.1699931618423943	-0.2773770692843985
147.516	-0.09038034094672605	-0.1207542703882979	1.564008696484041	0.8222394952246717	1.096370826451451	-0.8937082112621941	-0.3201888693453531	-0.0825403285257631	0.00594021801041582	0.4106153896911976	0.4106153896281505	-0.4505304517262127	-0.2276483420994001	0.5019126362417552	0.08786196232189991	0.05173654018812835	0.3515939008205032	0.3515939015325642	-0.1749901686855714	-0.2653137596399647
147.52	-0.08569477330513943	-0.1171226918511434	1.564358212613473	0.8225137147935804	1.095676998920078	-0.8940037227915223	-0.3192484119480491	-0.07648476916371275	0.01591414407588345	0.4374906258162709	0.4374906256582374	-0.4436009656148836	-0.2304859955659012	0.4895152658218714	0.08294015223258278	0.05307914576961913	0.3211174081243397	0.3211174087036247	-0.1801324814611229	-0.2531002816651761
147.524	-0.08109899614613578	-0.1130805229648766	1.564640764231312	0.8227857039556818	1.094859993490564	-0.8942596858643849	-0.3178429975409737	-0.0705707903249897	0.02526088948332464	0.4658681070143096	0.4658681067401127	-0.4367361701880937	-0.2326291972943504	0.4774592528971344	0.07813800678781467	0.05399758375109404	0.2939998887809879	0.2939998892226342	-0.1852861410851146	-0.2409569959471693
147.528	-0.0766887624430852	-0.1086705683324636	1.564859333752828	0.82305412543395	1.093918891138891	-0.8944766332510503	-0.3159497386876407	-0.06492823103787179	0.03381831105889876	0.4956714207953343	0.4956714203861586	-0.4300251272513916	-0.2340952129950455	0.4658576102939272	0.07357688402636954	0.05450328946542537	0.270453503914315	0.2704535042227781	-0.1902881857239918	-0.229116679598553
147.532	-0.07255636960650619	-0.1039364444096143	1.565018249876933	0.8233175998742792	1.09285150528131	-0.8946550817891448	-0.3135487979475433	-0.05968512805446621	0.04144925166663242	0.5268220929891634	0.5268220924293208	-0.4235337532103343	-0.2349376246783322	0.4548107484970387	0.06937494634780236	0.05461668407837591	0.2506530957799873	0.250653095968975	-0.1949503947967927	-0.2178178167252159
147.536	-0.06878798464670166	-0.09892150830264926	1.565122958859082	0.8235747618687779	1.091654384806254	-0.8947954712672233	-0.3106240904646437	-0.05496428608867907	0.04804466476610209	0.5592403655575177	0.5592403648356109	-0.4173054242033351	-0.2352441106043825	0.4444047620262712	0.06564350889682925	0.05436468872642245	0.2347329530716885	0.2347329531630765	-0.1990643587236737	-0.207297417919594
147.54	-0.06546119636543271	-0.09366795967864176	1.565179785079366	0.8238243106718195	1.090322889686997	-0.894898090878825	-0.3071636637817344	-0.05087997631241531	0.05352566469435072	0.5928458998740461	0.5928458989841805	-0.4113622086545647	-0.2351325780109567	0.4347102145232983	0.06248369065271214	0.05377809543008627	0.22278440708899	0.2227844071107772	-0.2024077017836365	-0.1977836217676805
147.544	-0.06264287707452514	-0.0882161458043121	1.565195691082157	0.8240650551586997	1.088851347760194	-0.8949629977715219	-0.3031597478380856	-0.04753485194275823	0.05784455375868507	0.6275583433440569	0.6275583422866946	-0.405706720316088	-0.2347459149592963	0.4257814037372843	0.05998348071284044	0.0528890248894132	0.2148542371008964	0.2148542370843702	-0.2047512485996649	-0.1894883581643053
147.548	-0.06038742695486114	-0.08260407120903297	1.56517804465341	0.8242959532555854	1.087233298237043	-0.8949899337929611	-0.2986085057257222	-0.0450171705305402	0.06098490256340043	0.6632976991051601	0.6632976978874354	-0.4003245571637912	-0.2342456633927618	0.4176560516284055	0.05821531516906452	0.05172868733494159	0.2109438449753482	0.2109438449518509	-0.2058668998745231	-0.1826003925843214
147.552	-0.05873546906673168	-0.07686710776212778	1.565134397080359	0.824516145924293	1.085461820890518	-0.8949782472601064	-0.2935095145847945	-0.04339842454791294	0.06296075974330388	0.6999844759415423	0.6999844745770484	-0.3951872052628613	-0.2338048940068106	0.4103553615061686	0.05723424884383031	0.05032562346469453	0.2110091517656763	0.2110091517634411	-0.2055359533054979	-0.1772790888633554
147.556	-0.05771306633748974	-0.07103793598099375	1.565072273559961	0.8247249854130043	1.083529939092289	-0.8949268272911628	-0.2878649531730206	-0.04273149904131745	0.06381505611983387	0.7375396554787155	0.7375396539868623	-0.39025519839829	-0.2336005773822759	0.4038844135831571	0.05707680343301866	0.04870456741978866	0.2149611380263279	0.2149611380678331	-0.2035575515988033	-0.1736491735759456
147.56	-0.0573315148578677	-0.06514678989723964	1.564998974314998	0.8249220573430058	1.081431073915644	-0.8948340579966628	-0.2816784160637719	-0.0430494627733479	0.06361727413406672	0.7758845660549668	0.7758845644601021	-0.385481255253285	-0.2338057768697006	0.3982329149782604	0.05776054884608697	0.04688603368432825	0.222666933282422	0.2226669333827406	-0.1997568715048557	-0.1717966826665511
